<svg width="26" height="30" viewBox="0 0 26 30" fill="none" xmlns="http://www.w3.org/2000/svg">
<path d="M25.1875 3.89766C25.1801 3.12675 24.8691 2.38984 24.322 1.84668C23.7749 1.30353 23.0358 0.997908 22.2648 0.996094L3.72109 0.9375C2.95095 0.937652 2.21229 1.24318 1.66706 1.78709C1.12183 2.331 0.814516 3.06892 0.8125 3.83906V22.9688C0.8125 24.5684 2.11797 25.7812 3.72109 25.7812H19.5625L18.8008 23.2031L25.1875 29.0625V3.89766ZM17.0225 19.3248C17.0225 19.3248 16.5115 18.716 16.085 18.1928C17.9447 17.6689 18.6543 16.5234 18.6543 16.5234C18.1435 16.8623 17.5961 17.1424 17.0225 17.3584C16.3601 17.6334 15.6705 17.8375 14.9652 17.9672C13.75 18.1904 12.5038 18.1856 11.2902 17.9531C10.5764 17.8206 9.87777 17.6164 9.20488 17.3438C8.84892 17.2074 8.50279 17.0467 8.16895 16.8627C8.12617 16.8346 8.08398 16.8205 8.04121 16.7918C8.0125 16.7777 7.99844 16.7637 7.98262 16.7637C7.72715 16.6219 7.58535 16.5229 7.58535 16.5229C7.58535 16.5229 8.26621 17.6414 10.0686 18.1787C9.64258 18.7166 9.11758 19.3395 9.11758 19.3395C5.98223 19.2404 4.79043 17.2025 4.79043 17.2025C4.79043 12.6873 6.83359 9.02168 6.83359 9.02168C8.87676 7.50703 10.8062 7.54981 10.8062 7.54981L10.948 7.71973C8.39395 8.4416 7.23086 9.55957 7.23086 9.55957C7.23086 9.55957 7.54258 9.38965 8.06758 9.16289C9.58574 8.49785 10.7922 8.32793 11.2902 8.27168C11.3697 8.25516 11.4505 8.24555 11.5316 8.24297C12.4824 8.1196 13.4445 8.11016 14.3975 8.21484C15.8938 8.38673 17.3435 8.84317 18.6684 9.55957C18.6684 9.55957 17.5475 8.49609 15.1352 7.77539L15.3338 7.54922C15.3338 7.54922 17.2773 7.50645 19.307 9.02344C19.307 9.02344 21.3502 12.6891 21.3502 17.2043C21.3502 17.1879 20.1578 19.2258 17.0225 19.3248Z" fill="#9254DE"/>
</svg>
