<svg width="19" height="19" viewBox="0 0 19 19" fill="none" xmlns="http://www.w3.org/2000/svg">
<g clip-path="url(#clip0)">
<path d="M16.6133 3.05895C16.6089 2.59375 16.4212 2.14906 16.0911 1.82129C15.7609 1.49352 15.3149 1.3091 14.8497 1.308L3.65948 1.27264C3.19474 1.27274 2.749 1.4571 2.41998 1.78533C2.09096 2.11355 1.90551 2.55885 1.9043 3.02359V14.5674C1.9043 15.5326 2.69208 16.2646 3.65948 16.2646H13.219L12.7593 14.7088L16.6133 18.2446V3.05895ZM11.6862 12.3684C11.6862 12.3684 11.3778 12.0011 11.1204 11.6853C12.2427 11.3692 12.6709 10.678 12.6709 10.678C12.3627 10.8824 12.0323 11.0514 11.6862 11.1818C11.2865 11.3478 10.8704 11.4709 10.4447 11.5492C9.71138 11.6839 8.95937 11.681 8.22707 11.5407C7.79631 11.4607 7.37472 11.3375 6.96867 11.173C6.75386 11.0907 6.54499 10.9937 6.34353 10.8827C6.31772 10.8657 6.29226 10.8572 6.26645 10.8399C6.24912 10.8314 6.24064 10.8229 6.23109 10.8229C6.07693 10.7374 5.99136 10.6776 5.99136 10.6776C5.99136 10.6776 6.40223 11.3526 7.48985 11.6768C7.23279 12.0014 6.91598 12.3773 6.91598 12.3773C5.02396 12.3175 4.30477 11.0878 4.30477 11.0878C4.30477 8.36304 5.53772 6.15103 5.53772 6.15103C6.77066 5.23702 7.93501 5.26283 7.93501 5.26283L8.02058 5.36537C6.47931 5.80098 5.77744 6.47562 5.77744 6.47562C5.77744 6.47562 5.96555 6.37308 6.28236 6.23624C7.1985 5.83493 7.92652 5.73239 8.22707 5.69844C8.27504 5.68847 8.32378 5.68268 8.37274 5.68112C8.94647 5.60667 9.52704 5.60097 10.1021 5.66414C11.0051 5.76787 11.8799 6.04331 12.6794 6.47562C12.6794 6.47562 12.003 5.83386 10.5473 5.39896L10.6671 5.26247C10.6671 5.26247 11.84 5.23666 13.0648 6.15209C13.0648 6.15209 14.2977 8.3641 14.2977 11.0888C14.2977 11.0789 13.5782 12.3087 11.6862 12.3684Z" fill="#9254DE"/>
<path d="M7.70489 8.41498C7.21695 8.41498 6.83154 8.83362 6.83154 9.35445C6.83154 9.87528 7.22543 10.2939 7.70489 10.2939C8.19284 10.2939 8.57824 9.87563 8.57824 9.35445C8.58708 8.83256 8.19284 8.41498 7.70489 8.41498ZM10.8299 8.41498C10.3419 8.41498 9.95651 8.83362 9.95651 9.35445C9.95651 9.87528 10.3504 10.2939 10.8299 10.2939C11.3182 10.2939 11.7032 9.87563 11.7032 9.35445C11.7032 8.83327 11.3097 8.41498 10.8299 8.41498Z" fill="#9254DE"/>
</g>
<defs>
<clipPath id="clip0">
<rect width="18.1034" height="18.1034" fill="white" transform="translate(0.207031 0.706909)"/>
</clipPath>
</defs>
</svg>
