<svg width="94" height="108" viewBox="0 0 94 108" fill="none" xmlns="http://www.w3.org/2000/svg">
<path d="M93.1941 24.853C93.6838 22.3303 93.1595 19.7162 91.7347 17.5776C90.3099 15.4389 88.0996 13.948 85.5829 13.4282L25.0581 0.875629C22.5427 0.362752 19.9266 0.868207 17.7833 2.28118C15.64 3.69415 14.1444 5.89934 13.6244 8.41327L0.872614 70.8908C-0.193682 76.1152 3.26147 80.9467 8.49728 82.0153L60.2353 92.5752L59.4661 83.6473L76.4193 107.041L93.1941 24.853ZM56.2434 69.7952C56.2434 69.7952 54.9805 67.4663 53.9361 65.4731C60.3593 65.002 63.4404 61.7337 63.4404 61.7337C61.5462 62.4999 59.5717 63.0498 57.5542 63.373C55.2077 63.8296 52.8195 64.0364 50.4295 63.9899C46.3116 63.9088 42.2447 63.0626 38.4363 61.4942C36.1933 60.5854 34.0476 59.453 32.0318 58.1139C30.9601 57.4314 29.9367 56.6757 28.969 55.8523C28.8481 55.7319 28.7197 55.6578 28.5991 55.5355C28.5147 55.4705 28.4782 55.4152 28.4265 55.4046C27.6867 54.7712 27.2896 54.3533 27.2896 54.3533C27.2896 54.3533 28.7676 58.4604 34.2959 61.4166C32.5461 62.8894 30.4163 64.5737 30.4163 64.5737C20.2422 62.1603 17.7083 54.7101 17.7083 54.7101C20.7181 39.9633 29.8346 29.3533 29.8346 29.3533C37.5172 25.7685 43.7904 27.1944 43.7904 27.1944L44.1403 27.8439C35.3174 28.4989 30.7735 31.3749 30.7735 31.3749C30.7735 31.3749 31.9049 31.0277 33.7707 30.6371C39.1723 29.4771 43.2258 29.7264 44.8899 29.8746C45.1606 29.8737 45.4308 29.8961 45.6975 29.9418C48.8849 30.1726 52.0333 30.7831 55.076 31.7603C59.8485 33.3191 64.2788 35.7762 68.1284 38.9991C68.1284 38.9991 65.1764 34.7786 57.7783 30.8168L58.5778 30.2105C58.5778 30.2105 64.9539 31.3664 70.5717 37.6739C70.5717 37.6739 74.8011 51.0078 71.7913 65.7545C71.8022 65.7009 66.5495 71.5618 56.2434 69.7952Z" fill="#FAFAFF"/>
</svg>
