<svg width="44" height="43" viewBox="0 0 44 43" fill="none" xmlns="http://www.w3.org/2000/svg">
<path d="M34.7857 32.6892C30.8332 34.3667 26.1165 35.2875 21.9998 35.2875C17.8832 35.2875 13.1773 34.3459 9.21317 32.6892C5.249 31.0325 4.6665 29.63 4.6665 29.63V32.8134C4.6665 35.4092 6.1665 36.45 10.2765 38.1759C13.4273 39.4992 17.5982 40.2 21.9998 40.2C26.4015 40.2 30.5723 39.4992 33.7232 38.1759C37.8332 36.45 39.3332 35.4092 39.3332 32.8134V29.63C39.3332 29.63 38.7382 31.0125 34.7857 32.6892ZM5.974 14.635C6.90984 15.455 8.29234 16.2592 9.974 16.9617C13.514 18.4417 18.0115 19.3259 22.004 19.3259C25.9965 19.3259 30.494 18.4417 34.034 16.9617C35.7115 16.2592 37.094 15.455 38.0298 14.635C38.5348 14.1925 38.934 13.7917 39.1523 13.5642C39.2712 13.4399 39.3375 13.2745 39.3373 13.1025V10.9225C39.2673 8.52337 37.2782 6.38837 33.7365 4.91087C30.569 3.59253 26.4032 2.8667 21.9998 2.8667C17.5965 2.8667 13.4307 3.59253 10.2715 4.91087C6.73734 6.38503 4.74984 8.51503 4.67067 10.9084V13.1025C4.67025 13.2744 4.73623 13.4398 4.85484 13.5642C5.06984 13.7917 5.46817 14.1925 5.974 14.635Z" fill="#FAFAFF"/>
<path d="M34.7857 18.6925C31.0832 20.2833 26.1165 21.2908 21.9998 21.2908C17.8832 21.2908 12.9273 20.2683 9.214 18.6925C5.50067 17.1166 4.6665 15.6333 4.6665 15.6333V19.58C4.67317 20.2066 5.12484 20.93 5.974 21.6741C6.91067 22.4941 8.29234 23.2991 9.974 24.0008C13.5098 25.4816 18.0073 26.3666 21.9998 26.3666C25.9923 26.3666 30.4898 25.4833 34.0298 24.0025C35.7073 23.3008 37.0898 22.4958 38.0257 21.6758C38.8798 20.9258 39.3323 20.2 39.3332 19.57V15.6333C39.3332 15.6333 38.489 17.1016 34.7857 18.6925Z" fill="#FAFAFF"/>
<path d="M34.7857 25.7315C30.8332 27.3665 26.1165 28.3299 21.9998 28.3299C17.8832 28.3299 12.844 27.2632 9.214 25.7315C5.584 24.1999 4.6665 22.6724 4.6665 22.6724V26.5265C4.6665 27.1557 5.11984 27.8832 5.974 28.6315C6.90984 29.4515 8.2915 30.2565 9.974 30.9582C13.514 32.439 18.0107 33.3224 22.004 33.3224C25.9973 33.3224 30.494 32.439 34.034 30.9582C35.7115 30.2557 37.094 29.4515 38.0298 28.6315C38.879 27.8874 39.3307 27.164 39.3373 26.5374V22.6724C39.3373 22.6724 38.739 24.0965 34.7857 25.7315Z" fill="#FAFAFF"/>
</svg>
